REM DIRINDEX 1\2\3,1\2\4,1\2\5,1\2\6
REM DIRNAME folder01,folder02,folder03,folder04,folder05,folder06
TITLE ""
FILE "024 024.mp3" MP3
  TRACK 01 AUDIO
    TITLE "0:"
    INDEX 01 00:00:00
  TRACK 02 AUDIO
    TITLE "3:cjc157_0886"
    INDEX 01 00:00:13
  TRACK 03 AUDIO
    TITLE "0:"
    INDEX 01 00:01:58
  TRACK 04 AUDIO
    TITLE "4:cjc157_0887"
    INDEX 01 00:02:24
  TRACK 05 AUDIO
    TITLE "0:"
    INDEX 01 00:03:35
  TRACK 06 AUDIO
    TITLE "5:cjc157_0888"
    INDEX 01 00:04:05
  TRACK 07 AUDIO
    TITLE "0:"
    INDEX 01 00:06:24
  TRACK 08 AUDIO
    TITLE "5:cjc157_0889"
    INDEX 01 00:07:07
  TRACK 09 AUDIO
    TITLE "0:"
    INDEX 01 00:09:53
  TRACK 10 AUDIO
    TITLE "5:cjc157_0890"
    INDEX 01 00:10:25
  TRACK 11 AUDIO
    TITLE "0:"
    INDEX 01 00:12:24
  TRACK 12 AUDIO
    TITLE "3:cjc157_0891"
    INDEX 01 00:12:73
  TRACK 13 AUDIO
    TITLE "0:"
    INDEX 01 00:14:45
  TRACK 14 AUDIO
    TITLE "4:cjc157_0892"
    INDEX 01 00:15:19
  TRACK 15 AUDIO
    TITLE "0:"
    INDEX 01 00:16:26
  TRACK 16 AUDIO
    TITLE "5:cjc157_0893"
    INDEX 01 00:16:71
  TRACK 17 AUDIO
    TITLE "0:"
    INDEX 01 00:21:00
  TRACK 18 AUDIO
    TITLE "5:cjc157_0894"
    INDEX 01 00:21:43
  TRACK 19 AUDIO
    TITLE "0:"
    INDEX 01 00:25:48
  TRACK 20 AUDIO
    TITLE "5:cjc157_0895"
    INDEX 01 00:26:18
  TRACK 21 AUDIO
    TITLE "0:"
    INDEX 01 00:28:47
  TRACK 22 AUDIO
    TITLE "3:cjc157_0896"
    INDEX 01 00:29:17
  TRACK 23 AUDIO
    TITLE "0:"
    INDEX 01 00:30:54
  TRACK 24 AUDIO
    TITLE "4:cjc157_0897"
    INDEX 01 00:31:24
  TRACK 25 AUDIO
    TITLE "0:"
    INDEX 01 00:32:35
  TRACK 26 AUDIO
    TITLE "5:cjc157_0898"
    INDEX 01 00:33:05
  TRACK 27 AUDIO
    TITLE "0:"
    INDEX 01 00:35:14
  TRACK 28 AUDIO
    TITLE "5:cjc157_0899"
    INDEX 01 00:35:63
  TRACK 29 AUDIO
    TITLE "0:"
    INDEX 01 00:37:65
  TRACK 30 AUDIO
    TITLE "3:cjc157_0900"
    INDEX 01 00:38:35
  TRACK 31 AUDIO
    TITLE "0:"
    INDEX 01 00:39:43
  TRACK 32 AUDIO
    TITLE "4:cjc157_0901"
    INDEX 01 00:40:15
  TRACK 33 AUDIO
    TITLE "0:"
    INDEX 01 00:41:20
  TRACK 34 AUDIO
    TITLE "5:cjc157_0902"
    INDEX 01 00:41:65
  TRACK 35 AUDIO
    TITLE "0:"
    INDEX 01 00:43:48
  TRACK 36 AUDIO
    TITLE "5:cjc157_0903"
    INDEX 01 00:44:18
  TRACK 37 AUDIO
    TITLE "0:"
    INDEX 01 00:45:67
  TRACK 38 AUDIO
    TITLE "3:cjc157_0904"
    INDEX 01 00:46:35
  TRACK 39 AUDIO
    TITLE "0:"
    INDEX 01 00:47:48
  TRACK 40 AUDIO
    TITLE "4:cjc157_0905"
    INDEX 01 00:48:20
  TRACK 41 AUDIO
    TITLE "0:"
    INDEX 01 00:49:29
  TRACK 42 AUDIO
    TITLE "5:cjc157_0906"
    INDEX 01 00:49:74
  TRACK 43 AUDIO
    TITLE "0:"
    INDEX 01 00:51:65
  TRACK 44 AUDIO
    TITLE "5:cjc157_0907"
    INDEX 01 00:52:36
  TRACK 45 AUDIO
    TITLE "0:"
    INDEX 01 00:54:36
  TRACK 46 AUDIO
    TITLE "5:cjc157_0908"
    INDEX 01 00:55:04
  TRACK 47 AUDIO
    TITLE "0:"
    INDEX 01 00:57:01
  TRACK 48 AUDIO
    TITLE "3:cjc157_0909"
    INDEX 01 00:57:48
  TRACK 49 AUDIO
    TITLE "0:"
    INDEX 01 00:59:04
  TRACK 50 AUDIO
    TITLE "4:cjc157_0910"
    INDEX 01 00:59:53
  TRACK 51 AUDIO
    TITLE "0:"
    INDEX 01 01:00:60
  TRACK 52 AUDIO
    TITLE "5:cjc157_0911"
    INDEX 01 01:01:33
  TRACK 53 AUDIO
    TITLE "0:"
    INDEX 01 01:03:55
  TRACK 54 AUDIO
    TITLE "3:cjc157_0912"
    INDEX 01 01:04:25
  TRACK 55 AUDIO
    TITLE "0:"
    INDEX 01 01:05:56
  TRACK 56 AUDIO
    TITLE "4:cjc157_0913"
    INDEX 01 01:06:28
  TRACK 57 AUDIO
    TITLE "0:"
    INDEX 01 01:07:43
  TRACK 58 AUDIO
    TITLE "5:cjc157_0914"
    INDEX 01 01:08:13
  TRACK 59 AUDIO
    TITLE "0:"
    INDEX 01 01:11:02
  TRACK 60 AUDIO
    TITLE "5:cjc157_0915"
    INDEX 01 01:11:45
  TRACK 61 AUDIO
    TITLE "0:"
    INDEX 01 01:14:41
  TRACK 62 AUDIO
    TITLE "3:cjc157_0916"
    INDEX 01 01:15:07
  TRACK 63 AUDIO
    TITLE "0:"
    INDEX 01 01:16:26
  TRACK 64 AUDIO
    TITLE "4:cjc157_0917"
    INDEX 01 01:16:69
  TRACK 65 AUDIO
    TITLE "0:"
    INDEX 01 01:17:69
  TRACK 66 AUDIO
    TITLE "5:cjc157_0918"
    INDEX 01 01:18:41
  TRACK 67 AUDIO
    TITLE "0:"
    INDEX 01 01:21:33
  TRACK 68 AUDIO
    TITLE "5:cjc157_0919"
    INDEX 01 01:22:07
  TRACK 69 AUDIO
    TITLE "0:"
    INDEX 01 01:23:46
  TRACK 70 AUDIO
    TITLE "3:cjc157_0920"
    INDEX 01 01:24:16
  TRACK 71 AUDIO
    TITLE "0:"
    INDEX 01 01:25:27
  TRACK 72 AUDIO
    TITLE "4:cjc157_0921"
    INDEX 01 01:25:70
  TRACK 73 AUDIO
    TITLE "0:"
    INDEX 01 01:27:10
  TRACK 74 AUDIO
    TITLE "5:cjc157_0922"
    INDEX 01 01:27:50
  TRACK 75 AUDIO
    TITLE "0:"
    INDEX 01 01:31:08
  TRACK 76 AUDIO
    TITLE "5:cjc157_0923"
    INDEX 01 01:31:53
  TRACK 77 AUDIO
    TITLE "0:"
    INDEX 01 01:34:46
  TRACK 78 AUDIO
    TITLE "3:cjc157_0924"
    INDEX 01 01:35:14
  TRACK 79 AUDIO
    TITLE "0:"
    INDEX 01 01:36:62
  TRACK 80 AUDIO
    TITLE "4:cjc157_0925"
    INDEX 01 01:37:28
  TRACK 81 AUDIO
    TITLE "0:"
    INDEX 01 01:38:49
  TRACK 82 AUDIO
    TITLE "5:cjc157_0926"
    INDEX 01 01:39:17
  TRACK 83 AUDIO
    TITLE "0:"
    INDEX 01 01:41:22
  TRACK 84 AUDIO
    TITLE "5:cjc157_0927"
    INDEX 01 01:41:71
  TRACK 85 AUDIO
    TITLE "0:"
    INDEX 01 01:44:34
